<mxfile host="app.diagrams.net" agent="Mozilla/5.0 (Windows NT 10.0; Win64; x64) AppleWebKit/537.36 (KHTML, like Gecko) Chrome/131.0.0.0 Safari/537.36" version="26.0.4">
  <diagram name="Halaman-1" id="dJWml7e_3UsgryPbaNAH">
    <mxGraphModel dx="1216" dy="539" grid="1" gridSize="10" guides="1" tooltips="1" connect="1" arrows="1" fold="1" page="1" pageScale="10" pageWidth="827" pageHeight="1169" math="0" shadow="0">
      <root>
        <mxCell id="0" />
        <mxCell id="1" parent="0" />
        <mxCell id="1x1_cKniDCLI9DL_jRmz-61" value="Membuka Aplikasi Pertama Kali" style="swimlane;whiteSpace=wrap;html=1;" parent="1" vertex="1">
          <mxGeometry width="1040" height="280" as="geometry" />
        </mxCell>
        <mxCell id="1x1_cKniDCLI9DL_jRmz-62" value="Pembeli" style="swimlane;horizontal=0;whiteSpace=wrap;html=1;" parent="1x1_cKniDCLI9DL_jRmz-61" vertex="1">
          <mxGeometry y="40" width="1040" height="120" as="geometry" />
        </mxCell>
        <mxCell id="v4LzWEk5CZVGfWKohJ5e-2" style="edgeStyle=orthogonalEdgeStyle;rounded=0;orthogonalLoop=1;jettySize=auto;html=1;exitX=1;exitY=0.5;exitDx=0;exitDy=0;entryX=0;entryY=0.5;entryDx=0;entryDy=0;" parent="1x1_cKniDCLI9DL_jRmz-62" source="1x1_cKniDCLI9DL_jRmz-66" target="1x1_cKniDCLI9DL_jRmz-67" edge="1">
          <mxGeometry relative="1" as="geometry" />
        </mxCell>
        <mxCell id="1x1_cKniDCLI9DL_jRmz-66" value="" style="ellipse;whiteSpace=wrap;html=1;aspect=fixed;" parent="1x1_cKniDCLI9DL_jRmz-62" vertex="1">
          <mxGeometry x="40" y="40" width="40" height="40" as="geometry" />
        </mxCell>
        <mxCell id="1x1_cKniDCLI9DL_jRmz-67" value="Membuka&amp;nbsp;&lt;div&gt;aplikasi&lt;/div&gt;" style="rounded=1;whiteSpace=wrap;html=1;" parent="1x1_cKniDCLI9DL_jRmz-62" vertex="1">
          <mxGeometry x="120" y="30" width="80" height="60" as="geometry" />
        </mxCell>
        <mxCell id="1x1_cKniDCLI9DL_jRmz-81" style="edgeStyle=orthogonalEdgeStyle;rounded=0;orthogonalLoop=1;jettySize=auto;html=1;exitX=1;exitY=0.5;exitDx=0;exitDy=0;entryX=0;entryY=0.5;entryDx=0;entryDy=0;" parent="1x1_cKniDCLI9DL_jRmz-62" source="1x1_cKniDCLI9DL_jRmz-72" target="1x1_cKniDCLI9DL_jRmz-77" edge="1">
          <mxGeometry relative="1" as="geometry" />
        </mxCell>
        <mxCell id="1x1_cKniDCLI9DL_jRmz-72" value="Mengisi nama, no telp/ email" style="rounded=1;whiteSpace=wrap;html=1;" parent="1x1_cKniDCLI9DL_jRmz-62" vertex="1">
          <mxGeometry x="265" y="30" width="80" height="60" as="geometry" />
        </mxCell>
        <mxCell id="1x1_cKniDCLI9DL_jRmz-78" style="edgeStyle=orthogonalEdgeStyle;rounded=0;orthogonalLoop=1;jettySize=auto;html=1;exitX=0.5;exitY=0;exitDx=0;exitDy=0;entryX=0.5;entryY=0;entryDx=0;entryDy=0;" parent="1x1_cKniDCLI9DL_jRmz-62" source="1x1_cKniDCLI9DL_jRmz-77" target="1x1_cKniDCLI9DL_jRmz-72" edge="1">
          <mxGeometry relative="1" as="geometry" />
        </mxCell>
        <mxCell id="1x1_cKniDCLI9DL_jRmz-77" value="Apakah no telp/email&amp;nbsp;&lt;div&gt;benar?&lt;/div&gt;" style="rhombus;whiteSpace=wrap;html=1;" parent="1x1_cKniDCLI9DL_jRmz-62" vertex="1">
          <mxGeometry x="400" y="25" width="110" height="70" as="geometry" />
        </mxCell>
        <mxCell id="1x1_cKniDCLI9DL_jRmz-85" value="Mengisi kode OTP" style="rounded=1;whiteSpace=wrap;html=1;" parent="1x1_cKniDCLI9DL_jRmz-62" vertex="1">
          <mxGeometry x="550" y="35" width="80" height="60" as="geometry" />
        </mxCell>
        <mxCell id="v4LzWEk5CZVGfWKohJ5e-10" value="ya" style="text;html=1;align=center;verticalAlign=middle;resizable=0;points=[];autosize=1;strokeColor=none;fillColor=none;" parent="1x1_cKniDCLI9DL_jRmz-62" vertex="1">
          <mxGeometry x="445" y="90" width="40" height="30" as="geometry" />
        </mxCell>
        <mxCell id="v4LzWEk5CZVGfWKohJ5e-11" value="tidak" style="text;html=1;align=center;verticalAlign=middle;resizable=0;points=[];autosize=1;strokeColor=none;fillColor=none;" parent="1x1_cKniDCLI9DL_jRmz-62" vertex="1">
          <mxGeometry x="355" width="50" height="30" as="geometry" />
        </mxCell>
        <mxCell id="v4LzWEk5CZVGfWKohJ5e-13" value="tidak" style="text;html=1;align=center;verticalAlign=middle;resizable=0;points=[];autosize=1;strokeColor=none;fillColor=none;" parent="1x1_cKniDCLI9DL_jRmz-62" vertex="1">
          <mxGeometry x="670" y="25" width="50" height="30" as="geometry" />
        </mxCell>
        <mxCell id="1x1_cKniDCLI9DL_jRmz-64" value="Penjual" style="swimlane;horizontal=0;whiteSpace=wrap;html=1;" parent="1x1_cKniDCLI9DL_jRmz-61" vertex="1">
          <mxGeometry y="160" width="1040" height="120" as="geometry" />
        </mxCell>
        <mxCell id="1x1_cKniDCLI9DL_jRmz-80" style="edgeStyle=orthogonalEdgeStyle;rounded=0;orthogonalLoop=1;jettySize=auto;html=1;exitX=1;exitY=0.5;exitDx=0;exitDy=0;entryX=0;entryY=0.5;entryDx=0;entryDy=0;" parent="1x1_cKniDCLI9DL_jRmz-64" source="1x1_cKniDCLI9DL_jRmz-69" target="1x1_cKniDCLI9DL_jRmz-71" edge="1">
          <mxGeometry relative="1" as="geometry" />
        </mxCell>
        <mxCell id="1x1_cKniDCLI9DL_jRmz-69" value="Menampilkan aplikasi" style="rounded=1;whiteSpace=wrap;html=1;" parent="1x1_cKniDCLI9DL_jRmz-64" vertex="1">
          <mxGeometry x="120" y="30" width="80" height="60" as="geometry" />
        </mxCell>
        <mxCell id="1x1_cKniDCLI9DL_jRmz-71" value="Menampilkan form registrasi berisi nama, no telp/email" style="rounded=1;whiteSpace=wrap;html=1;" parent="1x1_cKniDCLI9DL_jRmz-64" vertex="1">
          <mxGeometry x="240" y="30" width="130" height="60" as="geometry" />
        </mxCell>
        <mxCell id="1x1_cKniDCLI9DL_jRmz-84" style="edgeStyle=orthogonalEdgeStyle;rounded=0;orthogonalLoop=1;jettySize=auto;html=1;exitX=1;exitY=0.5;exitDx=0;exitDy=0;entryX=0;entryY=0.5;entryDx=0;entryDy=0;" parent="1x1_cKniDCLI9DL_jRmz-64" source="1x1_cKniDCLI9DL_jRmz-73" target="1x1_cKniDCLI9DL_jRmz-83" edge="1">
          <mxGeometry relative="1" as="geometry" />
        </mxCell>
        <mxCell id="1x1_cKniDCLI9DL_jRmz-73" value="Mengirimkan kode OTP ke no telp/email" style="rounded=1;whiteSpace=wrap;html=1;" parent="1x1_cKniDCLI9DL_jRmz-64" vertex="1">
          <mxGeometry x="415" y="30" width="80" height="60" as="geometry" />
        </mxCell>
        <mxCell id="1x1_cKniDCLI9DL_jRmz-83" value="Menampilkan form input kode OTP" style="rounded=1;whiteSpace=wrap;html=1;" parent="1x1_cKniDCLI9DL_jRmz-64" vertex="1">
          <mxGeometry x="550" y="30" width="80" height="60" as="geometry" />
        </mxCell>
        <mxCell id="1x1_cKniDCLI9DL_jRmz-91" style="edgeStyle=orthogonalEdgeStyle;rounded=0;orthogonalLoop=1;jettySize=auto;html=1;exitX=1;exitY=0.5;exitDx=0;exitDy=0;entryX=0;entryY=0.5;entryDx=0;entryDy=0;" parent="1x1_cKniDCLI9DL_jRmz-64" source="1x1_cKniDCLI9DL_jRmz-87" target="1x1_cKniDCLI9DL_jRmz-90" edge="1">
          <mxGeometry relative="1" as="geometry" />
        </mxCell>
        <mxCell id="1x1_cKniDCLI9DL_jRmz-87" value="Apakah&amp;nbsp;&lt;div&gt;kode OTP benar&lt;/div&gt;" style="rhombus;whiteSpace=wrap;html=1;" parent="1x1_cKniDCLI9DL_jRmz-64" vertex="1">
          <mxGeometry x="670" y="20" width="80" height="80" as="geometry" />
        </mxCell>
        <mxCell id="1x1_cKniDCLI9DL_jRmz-90" value="Menampilkan pesan &quot;Registrasi Sukses&quot;" style="rounded=1;whiteSpace=wrap;html=1;" parent="1x1_cKniDCLI9DL_jRmz-64" vertex="1">
          <mxGeometry x="790" y="30" width="80" height="60" as="geometry" />
        </mxCell>
        <mxCell id="v4LzWEk5CZVGfWKohJ5e-8" style="edgeStyle=orthogonalEdgeStyle;rounded=0;orthogonalLoop=1;jettySize=auto;html=1;exitX=1.007;exitY=0.579;exitDx=0;exitDy=0;exitPerimeter=0;entryX=0;entryY=0.5;entryDx=0;entryDy=0;" parent="1x1_cKniDCLI9DL_jRmz-64" source="1x1_cKniDCLI9DL_jRmz-92" target="v4LzWEk5CZVGfWKohJ5e-3" edge="1">
          <mxGeometry relative="1" as="geometry" />
        </mxCell>
        <mxCell id="1x1_cKniDCLI9DL_jRmz-92" value="" style="shape=cylinder3;whiteSpace=wrap;html=1;boundedLbl=1;backgroundOutline=1;size=15;" parent="1x1_cKniDCLI9DL_jRmz-64" vertex="1">
          <mxGeometry x="910" y="20" width="50" height="70" as="geometry" />
        </mxCell>
        <mxCell id="v4LzWEk5CZVGfWKohJ5e-3" value="" style="ellipse;whiteSpace=wrap;html=1;aspect=fixed;perimeterSpacing=1;strokeWidth=2;gradientColor=none;fillStyle=auto;" parent="1x1_cKniDCLI9DL_jRmz-64" vertex="1">
          <mxGeometry x="990" y="40" width="40" height="40" as="geometry" />
        </mxCell>
        <mxCell id="v4LzWEk5CZVGfWKohJ5e-4" style="edgeStyle=orthogonalEdgeStyle;rounded=0;orthogonalLoop=1;jettySize=auto;html=1;exitX=1;exitY=0.5;exitDx=0;exitDy=0;entryX=-0.001;entryY=0.57;entryDx=0;entryDy=0;entryPerimeter=0;dashed=1;" parent="1x1_cKniDCLI9DL_jRmz-64" source="1x1_cKniDCLI9DL_jRmz-90" target="1x1_cKniDCLI9DL_jRmz-92" edge="1">
          <mxGeometry relative="1" as="geometry" />
        </mxCell>
        <mxCell id="v4LzWEk5CZVGfWKohJ5e-9" value="" style="ellipse;whiteSpace=wrap;html=1;aspect=fixed;perimeterSpacing=1;strokeWidth=2;gradientColor=none;fillStyle=auto;" parent="1x1_cKniDCLI9DL_jRmz-64" vertex="1">
          <mxGeometry x="995" y="45" width="30" height="30" as="geometry" />
        </mxCell>
        <mxCell id="v4LzWEk5CZVGfWKohJ5e-12" value="ya" style="text;html=1;align=center;verticalAlign=middle;resizable=0;points=[];autosize=1;strokeColor=none;fillColor=none;" parent="1x1_cKniDCLI9DL_jRmz-64" vertex="1">
          <mxGeometry x="750" y="40" width="40" height="30" as="geometry" />
        </mxCell>
        <mxCell id="1x1_cKniDCLI9DL_jRmz-76" style="edgeStyle=orthogonalEdgeStyle;rounded=0;orthogonalLoop=1;jettySize=auto;html=1;exitX=0.5;exitY=0;exitDx=0;exitDy=0;entryX=0.5;entryY=1;entryDx=0;entryDy=0;" parent="1x1_cKniDCLI9DL_jRmz-61" source="1x1_cKniDCLI9DL_jRmz-71" target="1x1_cKniDCLI9DL_jRmz-72" edge="1">
          <mxGeometry relative="1" as="geometry" />
        </mxCell>
        <mxCell id="1x1_cKniDCLI9DL_jRmz-79" style="edgeStyle=orthogonalEdgeStyle;rounded=0;orthogonalLoop=1;jettySize=auto;html=1;exitX=0.5;exitY=1;exitDx=0;exitDy=0;entryX=0.5;entryY=0;entryDx=0;entryDy=0;" parent="1x1_cKniDCLI9DL_jRmz-61" source="1x1_cKniDCLI9DL_jRmz-67" target="1x1_cKniDCLI9DL_jRmz-69" edge="1">
          <mxGeometry relative="1" as="geometry" />
        </mxCell>
        <mxCell id="1x1_cKniDCLI9DL_jRmz-82" style="edgeStyle=orthogonalEdgeStyle;rounded=0;orthogonalLoop=1;jettySize=auto;html=1;exitX=0.5;exitY=1;exitDx=0;exitDy=0;entryX=0.5;entryY=0;entryDx=0;entryDy=0;" parent="1x1_cKniDCLI9DL_jRmz-61" source="1x1_cKniDCLI9DL_jRmz-77" target="1x1_cKniDCLI9DL_jRmz-73" edge="1">
          <mxGeometry relative="1" as="geometry" />
        </mxCell>
        <mxCell id="1x1_cKniDCLI9DL_jRmz-86" style="edgeStyle=orthogonalEdgeStyle;rounded=0;orthogonalLoop=1;jettySize=auto;html=1;exitX=0.5;exitY=0;exitDx=0;exitDy=0;entryX=0.5;entryY=1;entryDx=0;entryDy=0;" parent="1x1_cKniDCLI9DL_jRmz-61" source="1x1_cKniDCLI9DL_jRmz-83" target="1x1_cKniDCLI9DL_jRmz-85" edge="1">
          <mxGeometry relative="1" as="geometry" />
        </mxCell>
        <mxCell id="1x1_cKniDCLI9DL_jRmz-88" style="edgeStyle=orthogonalEdgeStyle;rounded=0;orthogonalLoop=1;jettySize=auto;html=1;exitX=1;exitY=0.25;exitDx=0;exitDy=0;entryX=0.5;entryY=0;entryDx=0;entryDy=0;" parent="1x1_cKniDCLI9DL_jRmz-61" source="1x1_cKniDCLI9DL_jRmz-85" target="1x1_cKniDCLI9DL_jRmz-87" edge="1">
          <mxGeometry relative="1" as="geometry" />
        </mxCell>
        <mxCell id="1x1_cKniDCLI9DL_jRmz-89" style="edgeStyle=orthogonalEdgeStyle;rounded=0;orthogonalLoop=1;jettySize=auto;html=1;exitX=0;exitY=0.5;exitDx=0;exitDy=0;entryX=1;entryY=0.75;entryDx=0;entryDy=0;" parent="1x1_cKniDCLI9DL_jRmz-61" source="1x1_cKniDCLI9DL_jRmz-87" target="1x1_cKniDCLI9DL_jRmz-85" edge="1">
          <mxGeometry relative="1" as="geometry" />
        </mxCell>
        <mxCell id="v4LzWEk5CZVGfWKohJ5e-50" value="Login" style="swimlane;whiteSpace=wrap;html=1;" parent="1" vertex="1">
          <mxGeometry y="360" width="720" height="280" as="geometry" />
        </mxCell>
        <mxCell id="v4LzWEk5CZVGfWKohJ5e-67" value="Sistem" style="swimlane;horizontal=0;whiteSpace=wrap;html=1;" parent="v4LzWEk5CZVGfWKohJ5e-50" vertex="1">
          <mxGeometry y="160" width="720" height="120" as="geometry" />
        </mxCell>
        <mxCell id="v4LzWEk5CZVGfWKohJ5e-82" style="edgeStyle=orthogonalEdgeStyle;rounded=0;orthogonalLoop=1;jettySize=auto;html=1;exitX=1;exitY=0.5;exitDx=0;exitDy=0;entryX=0;entryY=0.5;entryDx=0;entryDy=0;" parent="v4LzWEk5CZVGfWKohJ5e-67" source="v4LzWEk5CZVGfWKohJ5e-71" target="v4LzWEk5CZVGfWKohJ5e-72" edge="1">
          <mxGeometry relative="1" as="geometry" />
        </mxCell>
        <mxCell id="v4LzWEk5CZVGfWKohJ5e-71" value="Menampilkan aplikasi" style="rounded=1;whiteSpace=wrap;html=1;" parent="v4LzWEk5CZVGfWKohJ5e-67" vertex="1">
          <mxGeometry x="120" y="30" width="80" height="60" as="geometry" />
        </mxCell>
        <mxCell id="v4LzWEk5CZVGfWKohJ5e-72" value="Menampilkan form login berisi nama, no telp/email" style="rounded=1;whiteSpace=wrap;html=1;" parent="v4LzWEk5CZVGfWKohJ5e-67" vertex="1">
          <mxGeometry x="240" y="30" width="130" height="60" as="geometry" />
        </mxCell>
        <mxCell id="v4LzWEk5CZVGfWKohJ5e-84" style="edgeStyle=orthogonalEdgeStyle;rounded=0;orthogonalLoop=1;jettySize=auto;html=1;exitX=1;exitY=0.5;exitDx=0;exitDy=0;entryX=0;entryY=0.5;entryDx=0;entryDy=0;" parent="v4LzWEk5CZVGfWKohJ5e-67" source="v4LzWEk5CZVGfWKohJ5e-77" target="v4LzWEk5CZVGfWKohJ5e-83" edge="1">
          <mxGeometry relative="1" as="geometry" />
        </mxCell>
        <mxCell id="v4LzWEk5CZVGfWKohJ5e-77" value="Menampilkan pesan &quot;Login sukses&quot;" style="rounded=1;whiteSpace=wrap;html=1;" parent="v4LzWEk5CZVGfWKohJ5e-67" vertex="1">
          <mxGeometry x="415" y="30" width="80" height="60" as="geometry" />
        </mxCell>
        <mxCell id="v4LzWEk5CZVGfWKohJ5e-91" style="edgeStyle=orthogonalEdgeStyle;rounded=0;orthogonalLoop=1;jettySize=auto;html=1;exitX=1;exitY=0.5;exitDx=0;exitDy=0;entryX=0;entryY=0.5;entryDx=0;entryDy=0;" parent="v4LzWEk5CZVGfWKohJ5e-67" source="v4LzWEk5CZVGfWKohJ5e-83" target="v4LzWEk5CZVGfWKohJ5e-89" edge="1">
          <mxGeometry relative="1" as="geometry" />
        </mxCell>
        <mxCell id="v4LzWEk5CZVGfWKohJ5e-83" value="mumbuka fitur pemesanan dan profil" style="rounded=1;whiteSpace=wrap;html=1;" parent="v4LzWEk5CZVGfWKohJ5e-67" vertex="1">
          <mxGeometry x="540" y="30" width="80" height="60" as="geometry" />
        </mxCell>
        <mxCell id="v4LzWEk5CZVGfWKohJ5e-89" value="" style="ellipse;whiteSpace=wrap;html=1;aspect=fixed;perimeterSpacing=1;strokeWidth=2;gradientColor=none;fillStyle=auto;" parent="v4LzWEk5CZVGfWKohJ5e-67" vertex="1">
          <mxGeometry x="670" y="40" width="40" height="40" as="geometry" />
        </mxCell>
        <mxCell id="v4LzWEk5CZVGfWKohJ5e-90" value="" style="ellipse;whiteSpace=wrap;html=1;aspect=fixed;perimeterSpacing=1;strokeWidth=2;gradientColor=none;fillStyle=auto;" parent="v4LzWEk5CZVGfWKohJ5e-67" vertex="1">
          <mxGeometry x="675" y="45" width="30" height="30" as="geometry" />
        </mxCell>
        <mxCell id="v4LzWEk5CZVGfWKohJ5e-68" value="Pembeli" style="swimlane;horizontal=0;whiteSpace=wrap;html=1;startSize=23;fontStyle=0;fontSize=12;" parent="v4LzWEk5CZVGfWKohJ5e-50" vertex="1">
          <mxGeometry y="35" width="720" height="125" as="geometry" />
        </mxCell>
        <mxCell id="v4LzWEk5CZVGfWKohJ5e-80" style="edgeStyle=orthogonalEdgeStyle;rounded=0;orthogonalLoop=1;jettySize=auto;html=1;exitX=1;exitY=0.5;exitDx=0;exitDy=0;entryX=0;entryY=0.5;entryDx=0;entryDy=0;" parent="v4LzWEk5CZVGfWKohJ5e-68" source="v4LzWEk5CZVGfWKohJ5e-69" target="v4LzWEk5CZVGfWKohJ5e-70" edge="1">
          <mxGeometry relative="1" as="geometry" />
        </mxCell>
        <mxCell id="v4LzWEk5CZVGfWKohJ5e-69" value="" style="ellipse;whiteSpace=wrap;html=1;aspect=fixed;" parent="v4LzWEk5CZVGfWKohJ5e-68" vertex="1">
          <mxGeometry x="40" y="40" width="40" height="40" as="geometry" />
        </mxCell>
        <mxCell id="v4LzWEk5CZVGfWKohJ5e-70" value="Membuka&amp;nbsp;&lt;div&gt;aplikasi&lt;/div&gt;" style="rounded=1;whiteSpace=wrap;html=1;" parent="v4LzWEk5CZVGfWKohJ5e-68" vertex="1">
          <mxGeometry x="120" y="30" width="80" height="60" as="geometry" />
        </mxCell>
        <mxCell id="v4LzWEk5CZVGfWKohJ5e-79" style="edgeStyle=orthogonalEdgeStyle;rounded=0;orthogonalLoop=1;jettySize=auto;html=1;exitX=1;exitY=0.5;exitDx=0;exitDy=0;entryX=0;entryY=0.5;entryDx=0;entryDy=0;" parent="v4LzWEk5CZVGfWKohJ5e-68" source="v4LzWEk5CZVGfWKohJ5e-73" target="v4LzWEk5CZVGfWKohJ5e-75" edge="1">
          <mxGeometry relative="1" as="geometry" />
        </mxCell>
        <mxCell id="v4LzWEk5CZVGfWKohJ5e-73" value="Mengisi nama, no telp/ email" style="rounded=1;whiteSpace=wrap;html=1;" parent="v4LzWEk5CZVGfWKohJ5e-68" vertex="1">
          <mxGeometry x="265" y="30" width="80" height="60" as="geometry" />
        </mxCell>
        <mxCell id="v4LzWEk5CZVGfWKohJ5e-76" style="edgeStyle=orthogonalEdgeStyle;rounded=0;orthogonalLoop=1;jettySize=auto;html=1;exitX=0.5;exitY=0;exitDx=0;exitDy=0;entryX=0.5;entryY=0;entryDx=0;entryDy=0;" parent="v4LzWEk5CZVGfWKohJ5e-68" source="v4LzWEk5CZVGfWKohJ5e-75" target="v4LzWEk5CZVGfWKohJ5e-73" edge="1">
          <mxGeometry relative="1" as="geometry" />
        </mxCell>
        <mxCell id="v4LzWEk5CZVGfWKohJ5e-75" value="Apakah nama, no telp/email&amp;nbsp;&lt;div&gt;benar?&lt;/div&gt;" style="rhombus;whiteSpace=wrap;html=1;spacing=2;fontSize=9;fontStyle=0" parent="v4LzWEk5CZVGfWKohJ5e-68" vertex="1">
          <mxGeometry x="400" y="25" width="110" height="70" as="geometry" />
        </mxCell>
        <mxCell id="v4LzWEk5CZVGfWKohJ5e-85" value="ya" style="text;html=1;align=center;verticalAlign=middle;resizable=0;points=[];autosize=1;strokeColor=none;fillColor=none;" parent="v4LzWEk5CZVGfWKohJ5e-68" vertex="1">
          <mxGeometry x="450" y="95" width="40" height="30" as="geometry" />
        </mxCell>
        <mxCell id="v4LzWEk5CZVGfWKohJ5e-87" value="tidak" style="text;html=1;align=center;verticalAlign=middle;resizable=0;points=[];autosize=1;strokeColor=none;fillColor=none;" parent="v4LzWEk5CZVGfWKohJ5e-68" vertex="1">
          <mxGeometry x="360" width="50" height="30" as="geometry" />
        </mxCell>
        <mxCell id="v4LzWEk5CZVGfWKohJ5e-74" style="edgeStyle=orthogonalEdgeStyle;rounded=0;orthogonalLoop=1;jettySize=auto;html=1;exitX=0.5;exitY=0;exitDx=0;exitDy=0;entryX=0.5;entryY=1;entryDx=0;entryDy=0;" parent="v4LzWEk5CZVGfWKohJ5e-50" source="v4LzWEk5CZVGfWKohJ5e-72" target="v4LzWEk5CZVGfWKohJ5e-73" edge="1">
          <mxGeometry relative="1" as="geometry" />
        </mxCell>
        <mxCell id="v4LzWEk5CZVGfWKohJ5e-78" style="edgeStyle=orthogonalEdgeStyle;rounded=0;orthogonalLoop=1;jettySize=auto;html=1;exitX=0.5;exitY=1;exitDx=0;exitDy=0;entryX=0.5;entryY=0;entryDx=0;entryDy=0;" parent="v4LzWEk5CZVGfWKohJ5e-50" source="v4LzWEk5CZVGfWKohJ5e-75" target="v4LzWEk5CZVGfWKohJ5e-77" edge="1">
          <mxGeometry relative="1" as="geometry" />
        </mxCell>
        <mxCell id="v4LzWEk5CZVGfWKohJ5e-81" style="edgeStyle=orthogonalEdgeStyle;rounded=0;orthogonalLoop=1;jettySize=auto;html=1;exitX=0.5;exitY=1;exitDx=0;exitDy=0;entryX=0.5;entryY=0;entryDx=0;entryDy=0;" parent="v4LzWEk5CZVGfWKohJ5e-50" source="v4LzWEk5CZVGfWKohJ5e-70" target="v4LzWEk5CZVGfWKohJ5e-71" edge="1">
          <mxGeometry relative="1" as="geometry" />
        </mxCell>
        <mxCell id="Xs1nnPFi00Lcflwtf1iO-1" value="Menambah item ke etalase" style="swimlane;whiteSpace=wrap;html=1;" vertex="1" parent="1">
          <mxGeometry y="720" width="1050" height="280" as="geometry" />
        </mxCell>
        <mxCell id="Xs1nnPFi00Lcflwtf1iO-2" value="sistem" style="swimlane;horizontal=0;whiteSpace=wrap;html=1;" vertex="1" parent="Xs1nnPFi00Lcflwtf1iO-1">
          <mxGeometry y="160" width="1050" height="120" as="geometry" />
        </mxCell>
        <mxCell id="Xs1nnPFi00Lcflwtf1iO-21" style="edgeStyle=orthogonalEdgeStyle;rounded=0;orthogonalLoop=1;jettySize=auto;html=1;exitX=1;exitY=0.5;exitDx=0;exitDy=0;entryX=0;entryY=0.5;entryDx=0;entryDy=0;" edge="1" parent="Xs1nnPFi00Lcflwtf1iO-2" source="Xs1nnPFi00Lcflwtf1iO-13" target="Xs1nnPFi00Lcflwtf1iO-20">
          <mxGeometry relative="1" as="geometry" />
        </mxCell>
        <mxCell id="Xs1nnPFi00Lcflwtf1iO-13" value="Apakah data&lt;div&gt;benar?&lt;/div&gt;" style="rhombus;whiteSpace=wrap;html=1;" vertex="1" parent="Xs1nnPFi00Lcflwtf1iO-2">
          <mxGeometry x="465" y="20" width="110" height="70" as="geometry" />
        </mxCell>
        <mxCell id="Xs1nnPFi00Lcflwtf1iO-20" value="menampilkan item baru ke etalase" style="rounded=1;whiteSpace=wrap;html=1;" vertex="1" parent="Xs1nnPFi00Lcflwtf1iO-2">
          <mxGeometry x="620" y="25" width="80" height="60" as="geometry" />
        </mxCell>
        <mxCell id="Xs1nnPFi00Lcflwtf1iO-22" value="tidak" style="text;html=1;align=center;verticalAlign=middle;resizable=0;points=[];autosize=1;strokeColor=none;fillColor=none;" vertex="1" parent="Xs1nnPFi00Lcflwtf1iO-2">
          <mxGeometry x="400" y="25" width="50" height="30" as="geometry" />
        </mxCell>
        <mxCell id="Xs1nnPFi00Lcflwtf1iO-19" style="edgeStyle=orthogonalEdgeStyle;rounded=0;orthogonalLoop=1;jettySize=auto;html=1;exitX=0;exitY=0.5;exitDx=0;exitDy=0;entryX=0.5;entryY=1;entryDx=0;entryDy=0;" edge="1" parent="Xs1nnPFi00Lcflwtf1iO-2">
          <mxGeometry relative="1" as="geometry">
            <mxPoint x="505" y="619.9999999999998" as="sourcePoint" />
            <mxPoint x="440" y="534.9999999999998" as="targetPoint" />
          </mxGeometry>
        </mxCell>
        <mxCell id="Xs1nnPFi00Lcflwtf1iO-3" value="penjual" style="swimlane;horizontal=0;whiteSpace=wrap;html=1;" vertex="1" parent="Xs1nnPFi00Lcflwtf1iO-1">
          <mxGeometry y="40" width="1050" height="120" as="geometry" />
        </mxCell>
        <mxCell id="Xs1nnPFi00Lcflwtf1iO-14" style="edgeStyle=orthogonalEdgeStyle;rounded=0;orthogonalLoop=1;jettySize=auto;html=1;exitX=1;exitY=0.5;exitDx=0;exitDy=0;entryX=0;entryY=0.5;entryDx=0;entryDy=0;" edge="1" parent="Xs1nnPFi00Lcflwtf1iO-3" source="Xs1nnPFi00Lcflwtf1iO-4" target="Xs1nnPFi00Lcflwtf1iO-5">
          <mxGeometry relative="1" as="geometry" />
        </mxCell>
        <mxCell id="Xs1nnPFi00Lcflwtf1iO-4" value="" style="ellipse;whiteSpace=wrap;html=1;aspect=fixed;" vertex="1" parent="Xs1nnPFi00Lcflwtf1iO-3">
          <mxGeometry x="40" y="40" width="40" height="40" as="geometry" />
        </mxCell>
        <mxCell id="Xs1nnPFi00Lcflwtf1iO-15" style="edgeStyle=orthogonalEdgeStyle;rounded=0;orthogonalLoop=1;jettySize=auto;html=1;exitX=1;exitY=0.5;exitDx=0;exitDy=0;entryX=0;entryY=0.5;entryDx=0;entryDy=0;" edge="1" parent="Xs1nnPFi00Lcflwtf1iO-3" source="Xs1nnPFi00Lcflwtf1iO-5" target="Xs1nnPFi00Lcflwtf1iO-8">
          <mxGeometry relative="1" as="geometry" />
        </mxCell>
        <mxCell id="Xs1nnPFi00Lcflwtf1iO-5" value="Membuka&amp;nbsp;&lt;div&gt;halaman toko&lt;/div&gt;" style="rounded=1;whiteSpace=wrap;html=1;" vertex="1" parent="Xs1nnPFi00Lcflwtf1iO-3">
          <mxGeometry x="120" y="30" width="80" height="60" as="geometry" />
        </mxCell>
        <mxCell id="Xs1nnPFi00Lcflwtf1iO-16" style="edgeStyle=orthogonalEdgeStyle;rounded=0;orthogonalLoop=1;jettySize=auto;html=1;exitX=1;exitY=0.5;exitDx=0;exitDy=0;entryX=0;entryY=0.5;entryDx=0;entryDy=0;" edge="1" parent="Xs1nnPFi00Lcflwtf1iO-3" source="Xs1nnPFi00Lcflwtf1iO-8" target="Xs1nnPFi00Lcflwtf1iO-10">
          <mxGeometry relative="1" as="geometry" />
        </mxCell>
        <mxCell id="Xs1nnPFi00Lcflwtf1iO-8" value="membuka fitur tambah item&amp;nbsp;" style="rounded=1;whiteSpace=wrap;html=1;" vertex="1" parent="Xs1nnPFi00Lcflwtf1iO-3">
          <mxGeometry x="240" y="30" width="80" height="60" as="geometry" />
        </mxCell>
        <mxCell id="Xs1nnPFi00Lcflwtf1iO-17" style="edgeStyle=orthogonalEdgeStyle;rounded=0;orthogonalLoop=1;jettySize=auto;html=1;exitX=1;exitY=0.5;exitDx=0;exitDy=0;entryX=0;entryY=0.5;entryDx=0;entryDy=0;" edge="1" parent="Xs1nnPFi00Lcflwtf1iO-3" source="Xs1nnPFi00Lcflwtf1iO-10" target="Xs1nnPFi00Lcflwtf1iO-12">
          <mxGeometry relative="1" as="geometry" />
        </mxCell>
        <mxCell id="Xs1nnPFi00Lcflwtf1iO-10" value="mengisi judul, deskripsi, harga, foto" style="rounded=1;whiteSpace=wrap;html=1;" vertex="1" parent="Xs1nnPFi00Lcflwtf1iO-3">
          <mxGeometry x="360" y="30" width="80" height="60" as="geometry" />
        </mxCell>
        <mxCell id="Xs1nnPFi00Lcflwtf1iO-12" value="mengklik simpan" style="rounded=1;whiteSpace=wrap;html=1;" vertex="1" parent="Xs1nnPFi00Lcflwtf1iO-3">
          <mxGeometry x="480" y="30" width="80" height="60" as="geometry" />
        </mxCell>
        <mxCell id="Xs1nnPFi00Lcflwtf1iO-18" style="edgeStyle=orthogonalEdgeStyle;rounded=0;orthogonalLoop=1;jettySize=auto;html=1;exitX=0.5;exitY=1;exitDx=0;exitDy=0;entryX=0.5;entryY=0;entryDx=0;entryDy=0;" edge="1" parent="Xs1nnPFi00Lcflwtf1iO-1" source="Xs1nnPFi00Lcflwtf1iO-12" target="Xs1nnPFi00Lcflwtf1iO-13">
          <mxGeometry relative="1" as="geometry" />
        </mxCell>
        <mxCell id="Xs1nnPFi00Lcflwtf1iO-24" style="edgeStyle=orthogonalEdgeStyle;rounded=0;orthogonalLoop=1;jettySize=auto;html=1;exitX=0;exitY=0.5;exitDx=0;exitDy=0;entryX=0.5;entryY=1;entryDx=0;entryDy=0;" edge="1" parent="Xs1nnPFi00Lcflwtf1iO-1" source="Xs1nnPFi00Lcflwtf1iO-13" target="Xs1nnPFi00Lcflwtf1iO-10">
          <mxGeometry relative="1" as="geometry" />
        </mxCell>
      </root>
    </mxGraphModel>
  </diagram>
</mxfile>
